<svg width="0" height="0" class="hidden">
  <symbol xmlns="http://www.w3.org/2000/svg" viewBox="0 0 20 20" id="chevron-thin-left">
    <title>chevron-thin-left</title>
    <path d="M13.891 17.418c.268.272.268.709 0 .979s-.701.271-.969 0l-7.83-7.908a.697.697 0 010-.979l7.83-7.908c.268-.27.701-.27.969 0s.268.709 0 .979L6.75 10l7.141 7.418z"></path>
  </symbol>
  <symbol xmlns="http://www.w3.org/2000/svg" viewBox="0 0 20 20" id="chevron-thin-right">
    <title>chevron-thin-right</title>
    <path d="M13.25 10L6.109 2.58a.697.697 0 010-.979.68.68 0 01.969 0l7.83 7.908a.697.697 0 010 .979l-7.83 7.908c-.268.271-.701.27-.969 0s-.268-.707 0-.979L13.25 10z"></path>
  </symbol>
  <symbol xmlns="http://www.w3.org/2000/svg" viewBox="0 0 24 24" id="zoom-in">
    <title>zoom-in</title>
    <path d="M16.041 15.856a.995.995 0 00-.186.186A6.97 6.97 0 0111 18c-1.933 0-3.682-.782-4.95-2.05S4 12.933 4 11s.782-3.682 2.05-4.95S9.067 4 11 4s3.682.782 4.95 2.05S18 9.067 18 11a6.971 6.971 0 01-1.959 4.856zm5.666 4.437l-3.675-3.675A8.967 8.967 0 0020 11c0-2.485-1.008-4.736-2.636-6.364S13.485 2 11 2 6.264 3.008 4.636 4.636 2 8.515 2 11s1.008 4.736 2.636 6.364S8.515 20 11 20a8.967 8.967 0 005.618-1.968l3.675 3.675a.999.999 0 101.414-1.414zM8 12h2v2a1 1 0 002 0v-2h2a1 1 0 000-2h-2V8a1 1 0 00-2 0v2H8a1 1 0 000 2z"></path>
  </symbol>
  <symbol xmlns="http://www.w3.org/2000/svg" viewBox="0 0 512 512" id="close-outline">
    <title>close-outline</title>
    <line x1="368" y1="368" x2="144" y2="144" style="fill:none;stroke:#999;stroke-linecap:round;stroke-linejoin:round;stroke-width:32px"/><line x1="368" y1="144" x2="144" y2="368" style="fill:none;stroke:#999;stroke-linecap:round;stroke-linejoin:round;stroke-width:32px"/>
  </symbol>
</svg>